<?xml version="1.0" encoding="iso-8859-1"?>
<!-- Uploaded to: SVG Repo, www.svgrepo.com, Generator: SVG Repo Mixer Tools -->
<svg height="800px" width="800px" version="1.1" id="Layer_1" xmlns="http://www.w3.org/2000/svg" xmlns:xlink="http://www.w3.org/1999/xlink" 
	 viewBox="0 0 512 512" xml:space="preserve">
<g>
	<polygon style="fill:#CEE8FA;" points="367.819,496.989 149.426,496.989 179.462,424.937 337.781,424.937 	"/>
	<path style="fill:#CEE8FA;" d="M207.987,239.881L53.56,85.456l81.201-53.188c24.429-16.001,56.734-12.671,77.384,7.979
		l41.051,41.051c20.649,20.649,23.982,52.955,7.979,77.384L207.987,239.881z"/>
</g>
<path style="fill:#2D527C;" d="M429.072,224.281L405.166,103.68c16.581-9.631,27.761-27.575,27.761-48.091
	C432.928,24.938,407.991,0,377.339,0c-25.451,0-46.947,17.199-53.513,40.58h-90.122l-10.948-10.948
	c-14.481-14.481-33.74-22.457-54.232-22.457c-14.951,0-29.469,4.336-41.988,12.536L45.335,72.899
	c-3.779,2.475-6.242,6.523-6.706,11.017c-0.464,4.494,1.123,8.957,4.317,12.153l36.882,36.882
	c-8.557,10.265-13.22,23.072-13.22,36.6c0,15.3,5.959,29.686,16.779,40.505c10.819,10.82,25.205,16.779,40.506,16.779
	c13.528,0,26.335-4.663,36.6-13.22l36.882,36.882c2.829,2.829,6.654,4.396,10.613,4.396c0.512,0,1.027-0.027,1.54-0.08
	c4.494-0.464,8.54-2.927,11.015-6.706l53.188-81.201c19.791-30.215,15.617-70.681-9.921-96.22l-0.087-0.087h73.037
	c8.288,0,15.009-6.721,15.009-15.009c0-14.101,11.471-25.571,25.571-25.571c14.101,0,25.571,11.471,25.571,25.571
	S391.439,81.16,377.339,81.16c-8.288,0-15.009,6.721-15.009,15.009c0,7.848,6.029,14.283,13.708,14.943l25.634,129.321
	c1.06,5.343,4.834,9.456,9.606,11.192c1.99,0.974,4.219,1.537,6.583,1.537c14.101,0,25.571,11.471,25.571,25.571
	s-11.471,25.569-25.571,25.569s-25.571-11.471-25.571-25.569c0-8.288-6.721-15.009-15.009-15.009
	c-8.288,0-15.009,6.721-15.009,15.009c0,9.856,2.591,19.114,7.108,27.15L246.822,409.928h-67.358
	c-6.058,0-11.522,3.643-13.853,9.234l-30.038,72.053c-1.932,4.632-1.42,9.922,1.364,14.1c2.783,4.177,7.47,6.685,12.489,6.685
	h218.393c0.012,0.001,0.023,0.001,0.03,0c8.289,0,15.009-6.721,15.009-15.009c0-2.391-0.557-4.65-1.552-6.655l-29.67-71.173
	c-2.332-5.592-7.796-9.234-13.853-9.234h-44.58l97.463-82.739c8.046,4.534,17.32,7.132,27.195,7.132
	c30.652,0,55.589-24.936,55.589-55.588C473.45,251.923,454.369,229.483,429.072,224.281z M123.893,196.815
	c-7.284,0-14.131-2.837-19.281-7.986s-7.985-11.995-7.985-19.279c0-5.492,1.612-10.734,4.612-15.189l37.842,37.842
	C134.626,195.203,129.383,196.815,123.893,196.815z M248.618,150.457l-43.073,65.759l-34.254-34.254
	c-0.005-0.005-0.007-0.009-0.012-0.014l-59.787-59.787c-0.003-0.003-0.006-0.006-0.011-0.009L77.227,87.896l65.758-43.073
	c7.617-4.989,16.448-7.628,25.539-7.628c12.473,0,24.195,4.852,33.006,13.664l41.053,41.053
	C258.121,107.451,260.662,132.074,248.618,150.457z M345.301,481.98H171.944l17.523-42.034h138.31L345.301,481.98z"/>
</svg>