<?xml version="1.0" encoding="iso-8859-1"?>
<!-- Uploaded to: SVG Repo, www.svgrepo.com, Generator: SVG Repo Mixer Tools -->
<svg version="1.1" id="Layer_1" xmlns="http://www.w3.org/2000/svg" xmlns:xlink="http://www.w3.org/1999/xlink" 
	 viewBox="0 0 511.999 511.999" xml:space="preserve">
<g>
	<path style="fill:#3EAC92;" d="M343.19,315.893h152.081c5.04,0,9.125,4.085,9.125,9.125V481.15c0,5.04-4.085,9.125-9.125,9.125
		H343.19H168.81H16.729c-5.04,0-9.125-4.085-9.125-9.125V325.018c0-5.04,4.085-9.125,9.125-9.125h167.284H343.19z"/>
	<path style="fill:#3EAC92;" d="M184.013,315.893H46.636V175.98c0-2.24,1.816-4.055,4.055-4.055h133.321v143.968L184.013,315.893
		L184.013,315.893z"/>
	<path style="fill:#3EAC92;" d="M327.987,171.925h133.321c2.24,0,4.055,1.816,4.055,4.055v139.913H327.987V171.925z"/>
</g>
<path style="fill:#328777;" d="M256,106.687c-4.199,0-7.604-3.405-7.604-7.604V26.604c0-4.199,3.405-7.604,7.604-7.604
	s7.604,3.405,7.604,7.604v72.479C263.604,103.283,260.199,106.687,256,106.687z"/>
<path style="fill:#FFCD00;" d="M323.932,68.404h-63.876c-2.24,0-4.055-1.816-4.055-4.055V27.957c0-2.24,1.816-4.055,4.055-4.055
	h63.876c2.24,0,4.055,1.816,4.055,4.055v36.392C327.987,66.588,326.171,68.404,323.932,68.404z"/>
<g>
	<path style="fill:#266659;" d="M184.013,341.578H7.604v-17.573c0-4.479,3.632-8.111,8.111-8.111h168.298V341.578z"/>
	<path style="fill:#266659;" d="M504.396,341.578H327.987v-25.684h168.298c4.479,0,8.111,3.632,8.111,8.111V341.578z"/>
	<path style="fill:#266659;" d="M184.013,197.609H46.636v-20.615c0-2.799,2.27-5.069,5.069-5.069h132.307L184.013,197.609
		L184.013,197.609z"/>
	<path style="fill:#266659;" d="M465.364,197.609H327.987v-25.684h132.307c2.799,0,5.069,2.27,5.069,5.069v20.615H465.364z"/>
</g>
<g>
	<path style="fill:#D3FDF9;" d="M101.558,283.111H80.262c-2.24,0-4.055-1.816-4.055-4.055v-52.045c0-2.24,1.816-4.055,4.055-4.055
		h21.296c2.24,0,4.055,1.816,4.055,4.055v52.045C105.614,281.295,103.798,283.111,101.558,283.111z"/>
	<path style="fill:#D3FDF9;" d="M154.448,283.111h-21.296c-2.24,0-4.055-1.816-4.055-4.055v-52.045c0-2.24,1.816-4.055,4.055-4.055
		h21.296c2.24,0,4.055,1.816,4.055,4.055v52.045C158.503,281.295,156.687,283.111,154.448,283.111z"/>
	<path style="fill:#D3FDF9;" d="M380.879,283.111h-21.296c-2.24,0-4.055-1.816-4.055-4.055v-52.045c0-2.24,1.816-4.055,4.055-4.055
		h21.296c2.24,0,4.055,1.816,4.055,4.055v52.045C384.935,281.295,383.119,283.111,380.879,283.111z"/>
	<path style="fill:#D3FDF9;" d="M433.768,283.111h-21.296c-2.24,0-4.055-1.816-4.055-4.055v-52.045c0-2.24,1.816-4.055,4.055-4.055
		h21.296c2.24,0,4.055,1.816,4.055,4.055v52.045C437.824,281.295,436.008,283.111,433.768,283.111z"/>
	<path style="fill:#D3FDF9;" d="M105.44,438.062H86.301c-2.24,0-4.055-1.816-4.055-4.055v-52.045c0-2.24,1.816-4.055,4.055-4.055
		h19.139c2.24,0,4.055,1.816,4.055,4.055v52.045C109.495,436.246,107.679,438.062,105.44,438.062z"/>
	<path style="fill:#D3FDF9;" d="M57.837,438.062H38.699c-2.24,0-4.055-1.816-4.055-4.055v-52.045c0-2.24,1.816-4.055,4.055-4.055
		h19.139c2.24,0,4.055,1.816,4.055,4.055v52.045C61.892,436.246,60.077,438.062,57.837,438.062z"/>
	<path style="fill:#D3FDF9;" d="M154.448,438.062h-19.139c-2.24,0-4.055-1.816-4.055-4.055v-52.045c0-2.24,1.816-4.055,4.055-4.055
		h19.139c2.24,0,4.055,1.816,4.055,4.055v52.045C158.503,436.246,156.687,438.062,154.448,438.062z"/>
	<path style="fill:#D3FDF9;" d="M423.03,438.062h-19.138c-2.24,0-4.055-1.816-4.055-4.055v-52.045c0-2.24,1.816-4.055,4.055-4.055
		h19.139c2.24,0,4.055,1.816,4.055,4.055v52.045C427.085,436.246,425.27,438.062,423.03,438.062z"/>
	<path style="fill:#D3FDF9;" d="M375.428,438.062h-19.139c-2.24,0-4.055-1.816-4.055-4.055v-52.045c0-2.24,1.816-4.055,4.055-4.055
		h19.139c2.24,0,4.055,1.816,4.055,4.055v52.045C379.483,436.246,377.667,438.062,375.428,438.062z"/>
	<path style="fill:#D3FDF9;" d="M472.039,438.062H452.9c-2.24,0-4.055-1.816-4.055-4.055v-52.045c0-2.24,1.816-4.055,4.055-4.055
		h19.139c2.24,0,4.055,1.816,4.055,4.055v52.045C476.094,436.246,474.278,438.062,472.039,438.062z"/>
</g>
<path style="fill:#4BCDB2;" d="M327.987,130.622v359.651H184.013V130.622c0-1.499,0.827-2.876,2.15-3.58l67.932-36.135
	c1.19-0.634,2.619-0.634,3.809,0l67.932,36.135C327.16,127.746,327.987,129.123,327.987,130.622z"/>
<circle style="fill:#D3FDF9;" cx="256" cy="157.721" r="12.508"/>
<path style="fill:#266659;" d="M294.868,341.578h-78.787c-2.24,0-4.055-1.816-4.055-4.055V319.95c0-2.24,1.816-4.055,4.055-4.055
	h78.787c2.24,0,4.055,1.816,4.055,4.055v17.573C298.924,339.762,297.108,341.578,294.868,341.578z"/>
<g>
	<path style="fill:#328777;" d="M288.954,490.273h-68.077v-78.329c0-18.799,15.239-34.038,34.038-34.038l0,0
		c18.799,0,34.038,15.239,34.038,34.038v78.329H288.954z"/>
	<path style="fill:#328777;" d="M277.294,283.111h-44.61c-2.24,0-4.055-1.816-4.055-4.055v-52.045c0-2.24,1.816-4.055,4.055-4.055
		h44.61c2.24,0,4.055,1.816,4.055,4.055v52.045C281.35,281.295,279.534,283.111,277.294,283.111z"/>
</g>
<g>
	<path style="fill:#266659;" d="M277.633,222.956h-22.305v60.155h22.305c2.24,0,4.055-1.816,4.055-4.055v-52.045
		C281.688,224.772,279.872,222.956,277.633,222.956z"/>
	<path style="fill:#266659;" d="M288.88,411.944c0-18.774-15.2-33.997-33.964-34.036v112.366h33.964V411.944z"/>
</g>
<path style="fill:#8DFCF3;" d="M184.013,176.113h15.865c2.788,0,5.069-2.281,5.069-5.069v-12.793c0-2.788-2.281-5.069-5.069-5.069
	h-15.865V176.113z"/>
<path style="fill:#D3FDF9;" d="M184.013,222.956h15.865c2.788,0,5.069-2.281,5.069-5.069v-12.793c0-2.788-2.281-5.069-5.069-5.069
	h-15.865V222.956z"/>
<path id="SVGCleanerId_0" style="fill:#D3FDF9;" d="M184.013,269.798h15.865c2.788,0,5.069-2.281,5.069-5.069v-12.793
	c0-2.788-2.281-5.069-5.069-5.069h-15.865V269.798z"/>
<path style="fill:#D3FDF9;" d="M184.013,316.641h15.865c2.788,0,5.069-2.281,5.069-5.069v-12.793c0-2.788-2.281-5.069-5.069-5.069
	h-15.865V316.641z"/>
<path style="fill:#8DFCF3;" d="M184.013,222.956h15.865c2.788,0,5.069-2.281,5.069-5.069v-12.793c0-2.788-2.281-5.069-5.069-5.069
	h-15.865V222.956z"/>
<g>
	<path id="SVGCleanerId_0_1_" style="fill:#D3FDF9;" d="M184.013,269.798h15.865c2.788,0,5.069-2.281,5.069-5.069v-12.793
		c0-2.788-2.281-5.069-5.069-5.069h-15.865V269.798z"/>
</g>
<g>
	<g>
		<path id="SVGCleanerId_1" style="fill:#D3FDF9;" d="M184.013,316.641h15.865c2.788,0,5.069-2.281,5.069-5.069v-12.793
			c0-2.788-2.281-5.069-5.069-5.069h-15.865V316.641z"/>
	</g>
	<path style="fill:#D3FDF9;" d="M184.013,363.482h15.865c2.788,0,5.069-2.281,5.069-5.069V345.62c0-2.788-2.281-5.069-5.069-5.069
		h-15.865V363.482z"/>
</g>
<path style="fill:#8DFCF3;" d="M184.013,269.798h15.865c2.788,0,5.069-2.281,5.069-5.069v-12.793c0-2.788-2.281-5.069-5.069-5.069
	h-15.865V269.798z"/>
<g>
	<g>
		<path id="SVGCleanerId_1_1_" style="fill:#D3FDF9;" d="M184.013,316.641h15.865c2.788,0,5.069-2.281,5.069-5.069v-12.793
			c0-2.788-2.281-5.069-5.069-5.069h-15.865V316.641z"/>
	</g>
	<path style="fill:#D3FDF9;" d="M184.013,363.482h15.865c2.788,0,5.069-2.281,5.069-5.069V345.62c0-2.788-2.281-5.069-5.069-5.069
		h-15.865V363.482z"/>
	<path style="fill:#D3FDF9;" d="M184.013,410.324h15.865c2.788,0,5.069-2.281,5.069-5.069v-12.793c0-2.788-2.281-5.069-5.069-5.069
		h-15.865V410.324z"/>
</g>
<g>
	<g>
		<path id="SVGCleanerId_1_2_" style="fill:#8DFCF3;" d="M184.013,316.641h15.865c2.788,0,5.069-2.281,5.069-5.069v-12.793
			c0-2.788-2.281-5.069-5.069-5.069h-15.865V316.641z"/>
	</g>
	<path style="fill:#8DFCF3;" d="M184.013,363.482h15.865c2.788,0,5.069-2.281,5.069-5.069V345.62c0-2.788-2.281-5.069-5.069-5.069
		h-15.865V363.482z"/>
	<path style="fill:#8DFCF3;" d="M184.013,410.324h15.865c2.788,0,5.069-2.281,5.069-5.069v-12.793c0-2.788-2.281-5.069-5.069-5.069
		h-15.865V410.324z"/>
	<path style="fill:#8DFCF3;" d="M184.013,457.167h15.865c2.788,0,5.069-2.281,5.069-5.069v-12.793c0-2.788-2.281-5.069-5.069-5.069
		h-15.865V457.167z"/>
	<path style="fill:#8DFCF3;" d="M327.987,176.113h-15.865c-2.788,0-5.069-2.281-5.069-5.069v-12.793
		c0-2.788,2.281-5.069,5.069-5.069h15.865V176.113z"/>
	<path style="fill:#8DFCF3;" d="M327.987,222.956h-15.865c-2.788,0-5.069-2.281-5.069-5.069v-12.793
		c0-2.788,2.281-5.069,5.069-5.069h15.865V222.956z"/>
	<path style="fill:#8DFCF3;" d="M327.987,269.798h-15.865c-2.788,0-5.069-2.281-5.069-5.069v-12.793
		c0-2.788,2.281-5.069,5.069-5.069h15.865V269.798z"/>
	<path style="fill:#8DFCF3;" d="M327.987,316.641h-15.865c-2.788,0-5.069-2.281-5.069-5.069v-12.793
		c0-2.788,2.281-5.069,5.069-5.069h15.865V316.641z"/>
	<path style="fill:#8DFCF3;" d="M327.987,363.482h-15.865c-2.788,0-5.069-2.281-5.069-5.069V345.62c0-2.788,2.281-5.069,5.069-5.069
		h15.865V363.482z"/>
	<path style="fill:#8DFCF3;" d="M327.987,410.324h-15.865c-2.788,0-5.069-2.281-5.069-5.069v-12.793
		c0-2.788,2.281-5.069,5.069-5.069h15.865V410.324z"/>
	<path style="fill:#8DFCF3;" d="M327.987,457.167h-15.865c-2.788,0-5.069-2.281-5.069-5.069v-12.793
		c0-2.788,2.281-5.069,5.069-5.069h15.865V457.167z"/>
</g>
<g style="opacity:0.36;">
	<rect x="327.98" y="171.921" style="fill:#1F544A;" width="20.584" height="143.97"/>
</g>
<g style="opacity:0.36;">
	<rect x="365.86" y="341.471" style="fill:#1F544A;" width="138.53" height="11.841"/>
</g>
<g style="opacity:0.36;">
	<rect x="7.604" y="341.471" style="fill:#1F544A;" width="176.41" height="11.841"/>
</g>
<g style="opacity:0.36;">
	<rect x="46.636" y="197.611" style="fill:#1F544A;" width="137.38" height="11.841"/>
</g>
<g style="opacity:0.36;">
	<rect x="348.58" y="197.611" style="fill:#1F544A;" width="116.79" height="11.841"/>
</g>
<g style="opacity:0.36;">
	<rect x="327.98" y="341.471" style="fill:#1F544A;" width="37.868" height="148.73"/>
</g>
<path style="fill:#3EAC92;" d="M327.99,130.622c0-1.499-0.827-2.876-2.151-3.581l-67.932-36.135c-1.19-0.634-2.619-0.634-3.809,0
	l-67.932,36.135c-1.324,0.705-2.15,2.081-2.15,3.581v4.462h143.975v-4.462L327.99,130.622L327.99,130.622z"/>
<g>
	<path style="fill:#50000F;" d="M256,176.754c11.09,0,20.111-9.021,20.111-20.111S267.09,136.532,256,136.532
		s-20.111,9.021-20.111,20.111S244.91,176.754,256,176.754z M256,151.739c2.704,0,4.903,2.199,4.903,4.903s-2.199,4.903-4.903,4.903
		c-2.704,0-4.903-2.199-4.903-4.903S253.296,151.739,256,151.739z"/>
	<path style="fill:#50000F;" d="M504.396,307.202h-7.678h-23.75V196.521v-25.684c0-4.199-3.405-7.604-7.604-7.604H335.591v-36.134
		c0-2.811-1.551-5.393-4.033-6.714l-67.954-36.147V74.92h64.383c4.199,0,7.604-3.405,7.604-7.604V22.813
		c0-4.199-3.405-7.604-7.604-7.604H256c-4.199,0-7.604,3.405-7.604,7.604v2.704v41.799v16.922l-67.954,36.147
		c-2.482,1.32-4.033,3.902-4.033,6.714v36.134H46.637c-4.199,0-7.604,3.405-7.604,7.604v25.684v110.68H15.282H7.604
		c-4.199,0-7.604,3.405-7.604,7.604v7.678v18.006v141.018c0,8.427,6.856,15.282,15.282,15.282h168.73h36.864h68.077h39.034h168.73
		c8.427,0,15.282-6.856,15.282-15.282V340.491v-18.006v-7.678C512,310.606,508.595,307.202,504.396,307.202z M496.792,322.483
		v10.402H335.591v-10.476h7.599h122.173h31.354C496.759,322.409,496.792,322.442,496.792,322.483z M343.19,307.202h-7.599V204.125
		h122.168v103.076H343.19V307.202z M457.759,178.441v10.476H335.591v-10.476H457.759L457.759,178.441z M320.383,59.712h-56.779
		v-7.043h20.047c4.199,0,7.604-3.405,7.604-7.604V30.417h29.128V59.712L320.383,59.712z M263.604,37.461v-7.043h12.443v7.043
		H263.604z M54.241,178.441h122.168v10.476H54.241V178.441z M54.241,204.125h122.168v103.076H54.241V204.125z M46.637,322.409
		h129.772v10.476H15.208v-10.402c0-0.042,0.033-0.074,0.074-0.074H46.637z M15.208,481.508V348.094h161.201v133.488H15.282
		C15.241,481.582,15.208,481.549,15.208,481.508z M247.385,481.582h-18.904v-70.725c0-11.961,7.986-22.085,18.904-25.336
		L247.385,481.582L247.385,481.582z M262.593,481.582v-96.019c10.842,3.298,18.756,13.387,18.756,25.294v70.725L262.593,481.582
		L262.593,481.582z M296.557,481.582v-70.725c0-22.912-18.6-41.557-41.493-41.639c-0.025,0-0.05-0.004-0.075-0.004
		c-0.008,0-0.016,0.001-0.024,0.001c-0.016,0-0.032-0.001-0.05-0.001c-22.962,0-41.642,18.68-41.642,41.642v70.725h-21.656V340.49
		v-25.684V196.521v-25.684v-39.171L256,97.419l64.383,34.247v39.171v25.684v118.284v25.684v141.092L296.557,481.582L296.557,481.582
		z M496.718,481.582H335.591V348.094h161.201v133.414C496.792,481.549,496.759,481.582,496.718,481.582z"/>
	<path style="fill:#50000F;" d="M298.923,307.202h-86.898c-4.199,0-7.604,3.405-7.604,7.604v25.684c0,4.199,3.405,7.604,7.604,7.604
		h86.898c4.199,0,7.604-3.405,7.604-7.604v-25.684C306.527,310.606,303.123,307.202,298.923,307.202z M291.319,332.886h-71.69
		V322.41h71.69V332.886z"/>
	<path style="fill:#50000F;" d="M228.629,289.628h52.721c4.199,0,7.604-3.405,7.604-7.604v-60.155c0-4.199-3.405-7.604-7.604-7.604
		h-52.721c-4.199,0-7.604,3.405-7.604,7.604v60.155C221.025,286.224,224.429,289.628,228.629,289.628z M273.746,274.42h-11.152
		v-44.948h11.152V274.42z M236.233,229.472h11.152v44.948h-11.152V229.472z"/>
	<path style="fill:#50000F;" d="M105.614,214.264H76.207c-4.199,0-7.604,3.405-7.604,7.604v60.155c0,4.199,3.405,7.604,7.604,7.604
		h29.407c4.199,0,7.604-3.405,7.604-7.604v-60.155C113.218,217.668,109.813,214.264,105.614,214.264z M98.01,229.472v14.87H83.811
		v-14.87H98.01L98.01,229.472z M83.811,274.42v-14.87H98.01v14.87H83.811z"/>
	<path style="fill:#50000F;" d="M158.502,214.264h-29.406c-4.199,0-7.604,3.405-7.604,7.604v60.155c0,4.199,3.405,7.604,7.604,7.604
		h29.406c4.199,0,7.604-3.405,7.604-7.604v-60.155C166.106,217.668,162.702,214.264,158.502,214.264z M150.898,274.42H136.7v-44.948
		h14.198V274.42z"/>
	<path style="fill:#50000F;" d="M384.935,214.264h-29.407c-4.199,0-7.604,3.405-7.604,7.604v60.155c0,4.199,3.405,7.604,7.604,7.604
		h29.407c4.199,0,7.604-3.405,7.604-7.604v-60.155C392.539,217.668,389.134,214.264,384.935,214.264z M377.331,274.42h-14.199
		v-44.948h14.199V274.42z"/>
	<path style="fill:#50000F;" d="M437.824,214.264h-29.407c-4.199,0-7.604,3.405-7.604,7.604v60.155c0,4.199,3.405,7.604,7.604,7.604
		h29.407c4.199,0,7.604-3.405,7.604-7.604v-60.155C445.428,217.668,442.023,214.264,437.824,214.264z M430.22,229.472v14.87h-14.199
		v-14.87H430.22L430.22,229.472z M416.021,274.42v-14.87h14.199v14.87H416.021z"/>
	<path style="fill:#50000F;" d="M109.495,369.214h-27.25c-4.199,0-7.604,3.405-7.604,7.604v60.155c0,4.199,3.405,7.604,7.604,7.604
		h27.249c4.199,0,7.604-3.405,7.604-7.604v-60.155C117.099,372.619,113.694,369.214,109.495,369.214z M101.891,429.37H89.849
		v-44.948h12.041L101.891,429.37L101.891,429.37z"/>
	<path style="fill:#50000F;" d="M61.892,369.214H34.644c-4.199,0-7.604,3.405-7.604,7.604v60.155c0,4.199,3.405,7.604,7.604,7.604
		h27.249c4.199,0,7.604-3.405,7.604-7.604v-60.155C69.496,372.619,66.092,369.214,61.892,369.214z M54.288,384.422v22.138h-12.04
		v-22.138H54.288z M42.248,429.37v-7.603h12.041v7.603H42.248z"/>
	<path style="fill:#50000F;" d="M158.502,369.214h-27.249c-4.199,0-7.604,3.405-7.604,7.604v60.155c0,4.199,3.405,7.604,7.604,7.604
		h27.249c4.199,0,7.604-3.405,7.604-7.604v-60.155C166.106,372.619,162.702,369.214,158.502,369.214z M150.898,384.422v4.902
		h-12.041v-4.902H150.898z M138.857,429.37v-24.839h12.041v24.839H138.857z"/>
	<path style="fill:#50000F;" d="M427.086,369.214h-27.25c-4.199,0-7.604,3.405-7.604,7.604v60.155c0,4.199,3.405,7.604,7.604,7.604
		h27.25c4.199,0,7.604-3.405,7.604-7.604v-60.155C434.69,372.619,431.285,369.214,427.086,369.214z M419.482,429.37H407.44v-44.948
		h12.042V429.37z"/>
	<path style="fill:#50000F;" d="M379.483,369.214h-27.25c-4.199,0-7.604,3.405-7.604,7.604v60.155c0,4.199,3.405,7.604,7.604,7.604
		h27.25c4.199,0,7.604-3.405,7.604-7.604v-60.155C387.087,372.619,383.684,369.214,379.483,369.214z M371.879,384.422v4.902h-12.042
		v-4.902H371.879z M359.838,429.37v-24.839h12.042v24.839H359.838z"/>
	<path style="fill:#50000F;" d="M476.093,369.214h-27.249c-4.199,0-7.604,3.405-7.604,7.604v60.155c0,4.199,3.405,7.604,7.604,7.604
		h27.249c4.199,0,7.604-3.405,7.604-7.604v-60.155C483.697,372.619,480.294,369.214,476.093,369.214z M468.489,384.422v22.138
		h-12.041v-22.138H468.489z M456.449,429.37v-7.603h12.041v7.603H456.449z"/>
</g>
</svg>